<?xml version="1.0" encoding="utf-8"?>
<!-- Generator: Adobe Illustrator 24.1.2, SVG Export Plug-In . SVG Version: 6.00 Build 0)  -->
<svg version="1.1" id="圖層_1" xmlns="http://www.w3.org/2000/svg" xmlns:xlink="http://www.w3.org/1999/xlink" x="0px" y="0px"
	 viewBox="0 0 352.1 104.3" style="enable-background:new 0 0 352.1 104.3;" xml:space="preserve">
<style type="text/css">
	.st0{fill:#224A58;}
</style>
<g id="KKlab-logo">
	<g>
		<path class="st0" d="M189.9,77c-0.4-0.8-1.2-2.4-2.9-2.4c-3.8,0-4.7,0-5.2,0c-2.9,0-5.6-2.5-5.6-5.4c0-2.3,0-62.9,0-62.9
			c0-0.7-0.5-1.1-1.2-0.8l-17.4,7.1c-0.6,0.3-1.2,1.1-1.2,1.7c0,0,0,59.4,0,60.4c0,13.4,11.3,20.3,19.3,20.3c1.9,0,8.3,0,19.3,0
			c1.5,0,3.5-0.7,2.6-2.7L189.9,77z"/>
		<path class="st0" d="M78.8,24.4c0.4-0.4,0.2-0.8-0.4-0.8H54.6c-0.6,0-1.3,0.4-1.7,0.8L29.8,51.3c-0.4,0.4-0.7,0.3-0.7-0.2V24.6
			c0-0.6-0.5-1-1-1H10.4c-0.6,0-1,0.5-1,1v68.6c0,0.6,0.5,1,1,1h17.8c0.6,0,1-0.5,1-1V66.8c0-0.6,0.3-0.7,0.7-0.2l23.1,26.9
			c0.4,0.4,1.1,0.8,1.7,0.8h23.8c0.6,0,0.7-0.4,0.4-0.8L50.3,59.7c-0.4-0.4-0.4-1.1,0-1.6L78.8,24.4z"/>
		<path class="st0" d="M151.5,24.4c0.4-0.4,0.2-0.8-0.4-0.8h-23.8c-0.6,0-1.3,0.4-1.7,0.8l-23.1,26.9c-0.4,0.4-0.7,0.3-0.7-0.2V24.6
			c0-0.6-0.5-1-1-1H83.1c-0.6,0-1,0.5-1,1v68.6c0,0.6,0.5,1,1,1h17.8c0.6,0,1-0.5,1-1V66.8c0-0.6,0.3-0.7,0.7-0.2l23.1,26.9
			c0.4,0.4,1.1,0.8,1.7,0.8h23.8c0.6,0,0.7-0.4,0.4-0.8l-28.4-33.8c-0.4-0.4-0.4-1.1,0-1.6L151.5,24.4z"/>
		<path class="st0" d="M290,22.3c0-9.9,0-16,0-16c0-0.7-0.5-1.1-1.2-0.8l-17.4,7.1c-0.6,0.3-1.2,1.1-1.2,1.7c0,0,0,8.6,0,23.2
			c6.2-5.3,11.5-9.8,13.6-11.5C285.8,24.4,287.9,23.2,290,22.3z"/>
		<path class="st0" d="M306.8,22.7c-6.1,0-15.2,1.5-22.4,7.7c-7.2,6.2-47.9,41.3-48.2,41.5c-2.7,2.1-6.2,3.4-9.9,3.4
			c-8.8,0-16-7.2-16-16c0-8.8,7.2-16,16-16c6.7,0,12.5,4.1,14.8,10l0,0c0,0,1.4,4,2.4,7.2c4.3-3.7,10.5-9.1,16.8-14.5
			c-5.3-13.6-18.6-23.2-34.1-23.2c-20.2,0-36.6,16.4-36.6,36.6c0,20.2,16.4,36.6,36.6,36.6c9.9,0,18.9-4,25.5-10.4l0,0.1l44.2-39.1
			c3-2.4,6.6-3.9,10.7-3.9c9.2,0,16.7,7.5,16.7,16.7c0,9.2-7.5,16.7-16.7,16.7c-9.2,0-16.6-7.5-16.7-16.7c0-0.4,0-1.2,0-2.3
			l-17.5,15.3c5.2,13.8,18.6,23.6,34.2,23.6c20.2,0,36.6-16.4,36.6-36.6C343.4,39.1,327,22.7,306.8,22.7z"/>
		<path class="st0" d="M269.9,74.6l-16.8,14.7l1.3,4.1c0,0,0.5,1.8,2.5,1.8c2,0,15.4,0,17.2,0c2.8,0,1.7-2.6,1.7-2.6L269.9,74.6z"/>
	</g>
</g>
</svg>
